<?xml version="1.0" encoding="iso-8859-1"?>
<!-- Uploaded to: SVG Repo, www.svgrepo.com, Generator: SVG Repo Mixer Tools -->
<svg version="1.1" id="Layer_1" xmlns="http://www.w3.org/2000/svg" xmlns:xlink="http://www.w3.org/1999/xlink" 
	 viewBox="0 0 512 512" xml:space="preserve">
<rect y="57.332" width="512" height="397.336"/>
<circle style="fill:#E21B1B;" cx="44.192" cy="89.38" r="8.928"/>
<g style="opacity:0.7;">
	<circle style="fill:#FFFFFF;" cx="70.968" cy="89.38" r="8.928"/>
</g>
<g>
	<circle style="fill:#666666;" cx="97.736" cy="89.38" r="8.928"/>
	<polygon style="fill:#666666;" points="443.52,105.06 155.96,105.06 175.08,73.716 462.656,73.716 	"/>
</g>
<g>
	<path style="fill:#FFFFFF;" d="M195.2,82.396l1.856,7.128c0.408,1.56,0.8,3.008,1.048,4.456h0.096c0.312-1.416,0.8-2.92,1.24-4.424
		l2.296-7.16h2.144l2.168,7.008c0.52,1.672,0.928,3.16,1.248,4.576h0.088c0.28-1.536,0.64-3.048,1.08-4.544l2.008-7.04h2.52
		l-4.52,14.016h-2.312l-2.144-6.688c-0.488-1.6-0.896-2.952-1.248-4.616h-0.056c-0.336,1.568-0.76,3.12-1.28,4.64l-2.264,6.664
		h-2.312l-4.224-14.016H195.2z"/>
	<path style="fill:#FFFFFF;" d="M216.856,82.396l1.856,7.128c0.408,1.56,0.8,3.008,1.048,4.456h0.088
		c0.32-1.416,0.8-2.92,1.248-4.424l2.28-7.16h2.144l2.176,7.008c0.52,1.672,0.928,3.16,1.24,4.576h0.096
		c0.272-1.536,0.632-3.056,1.08-4.544l2.008-7.04h2.52l-4.52,14.016h-2.328l-2.144-6.688c-0.496-1.512-0.912-3.056-1.24-4.616
		h-0.064c-0.328,1.568-0.752,3.12-1.272,4.64l-2.264,6.664h-2.328l-4.232-14.016H216.856z"/>
	<path style="fill:#FFFFFF;" d="M238.488,82.396l1.856,7.128c0.408,1.56,0.8,3.008,1.048,4.456h0.088
		c0.32-1.416,0.8-2.92,1.248-4.424l2.28-7.16h2.144l2.176,7.008c0.52,1.672,0.928,3.16,1.24,4.576h0.096
		c0.272-1.536,0.632-3.056,1.08-4.544l2.008-7.04h2.52l-4.52,14.016h-2.328l-2.152-6.688c-0.496-1.512-0.912-3.056-1.24-4.616
		h-0.064c-0.328,1.568-0.752,3.12-1.272,4.64l-2.264,6.664h-2.328l-4.232-14.016H238.488z"/>
</g>
<g>
	<polygon style="fill:#666666;" points="0,423.58 82.856,423.58 113.944,454.66 0,454.66 	"/>
	<polygon style="fill:#666666;" points="512,423.58 429.144,423.58 398.056,454.66 512,454.66 	"/>
</g>
<g>
	<path style="fill:#E21B1B;" d="M148.968,214.268l78.48-36.456v17.328l-59.352,25.992v0.328l59.352,25.992v17.344l-78.48-36.456
		L148.968,214.268z"/>
	<path style="fill:#E21B1B;" d="M239.56,271.332l34.992-118.536h16.512l-34.992,118.536H239.56z"/>
	<path style="fill:#E21B1B;" d="M379.032,228.796l-78.48,36v-17.344l60.664-25.992v-0.328l-60.664-25.992v-17.336l78.48,36V228.796z
		"/>
</g>
<g>
	<path style="fill:#FFFFFF;" d="M145.976,382.876H128.8l18.4-87.616h17.16l-6.568,31.2c3.28-2.672,6.92-4.872,10.816-6.536
		c3.424-1.352,7.08-2.032,10.76-2.008c4.496-0.24,8.896,1.36,12.192,4.424c3.04,3.08,4.664,7.28,4.488,11.6
		c-0.192,3.984-0.752,7.952-1.68,11.832l-7.768,37.12h-17.192l7.952-37.832c0.608-2.592,1.032-5.224,1.248-7.88
		c0.088-1.896-0.632-3.744-1.968-5.088c-1.472-1.328-3.408-2.016-5.384-1.904c-3,0.048-5.904,1.096-8.24,2.984
		c-3.36,2.544-6.048,5.864-7.832,9.68c-1.752,4.832-3.072,9.816-3.944,14.88L145.976,382.876z"/>
	<path style="fill:#FFFFFF;" d="M207.656,332.14l2.632-12.728h8.368l2.088-10.168l19.664-11.832l-4.6,22h10.464l-2.632,12.728
		h-10.52l-5.552,26.592c-0.64,2.72-1.136,5.472-1.496,8.248c-0.064,1.16,0.4,2.296,1.256,3.08c1.344,0.88,2.944,1.272,4.536,1.112
		c0.76,0,2.656-0.144,5.68-0.424l-2.688,12.736c-2.992,0.6-6.04,0.896-9.088,0.888c-4.672,0.392-9.344-0.84-13.208-3.496
		c-2.792-2.432-4.312-6.016-4.12-9.712c0.392-4.552,1.128-9.064,2.208-13.504L216,332.14H207.656z"/>
	<path style="fill:#FFFFFF;" d="M256.848,319.404h16.136l-1.6,7.704c5.112-5.6,12.264-8.912,19.84-9.2
		c3.912-0.248,7.8,0.808,11.056,2.992c2.616,2.04,4.384,4.976,4.96,8.248c2.448-3.4,5.688-6.152,9.448-8
		c3.936-2.104,8.336-3.2,12.8-3.2c4.328-0.256,8.584,1.208,11.832,4.072c2.88,2.824,4.424,6.736,4.248,10.76
		c-0.224,3.824-0.792,7.624-1.68,11.352l-8.152,38.736h-17.152l8.136-38.792c0.992-4.856,1.488-7.608,1.496-8.248
		c0.08-1.544-0.504-3.056-1.6-4.152c-1.328-1.112-3.032-1.656-4.752-1.52c-4.688,0.232-8.96,2.76-11.416,6.752
		c-3.2,5.248-5.32,11.08-6.216,17.16l-6.032,28.8h-17.152l8-38.4c0.68-2.832,1.136-5.704,1.376-8.608
		c0.048-1.56-0.576-3.056-1.704-4.128c-1.288-1.128-2.976-1.704-4.688-1.6c-2.048,0.048-4.048,0.624-5.8,1.672
		c-2.04,1.152-3.824,2.72-5.232,4.6c-1.672,2.288-2.968,4.832-3.848,7.528c-0.488,1.432-1.264,4.68-2.336,9.744l-6.096,29.168
		h-17.144L256.848,319.404z"/>
	<path style="fill:#FFFFFF;" d="M352.8,382.876l18.4-87.616h17.096l-18.312,87.616H352.8z"/>
</g>
</svg>